{
  "accessors": [
    {
      "bufferView": 2,
      "componentType": 5126,
      "count": 4083,
      "max": [
        16.192399978637695,
        16.251800537109375,
        43.69580078125
      ],
      "min": [
        -17.3125,
        -7.2786002159118652,
        0.62550002336502075
      ],
      "type": "VEC3"
    },
    {
      "bufferView": 2,
      "byteOffset": 48996,
      "componentType": 5126,
      "count": 4083,
      "max": [
        0.99907797574996948,
        0.99934124946594238,
        0.9997749924659729
      ],
      "min": [
        -0.99976402521133423,
        -0.99967008829116821,
        -0.99991822242736816
      ],
      "type": "VEC3"
    },
    {
      "bufferView": 3,
      "componentType": 5126,
      "count": 4083,
      "max": [
        0.99986809492111206,
        0.99945038557052612,
        0.99973964691162109,
        1
      ],
      "min": [
        -0.99992108345031738,
        -0.99961215257644653,
        -0.99946939945220947,
        -1
      ],
      "type": "VEC4"
    },
    {
      "bufferView": 1,
      "componentType": 5126,
      "count": 4083,
      "max": [
        1.985200047492981,
        0.99210000038146973
      ],
      "min": [
        -0.10159999877214432,
        0.002099999925121665
      ],
      "type": "VEC2"
    },
    {
      "bufferView": 0,
      "componentType": 5125,
      "count": 13053,
      "max": [
        4082
      ],
      "min": [
        0
      ],
      "type": "SCALAR"
    },
    {
      "bufferView": 2,
      "byteOffset": 97992,
      "componentType": 5126,
      "count": 3681,
      "max": [
        16.192399978637695,
        17.055700302124023,
        43.69580078125
      ],
      "min": [
        -12.608699798583984,
        -15.767999649047852,
        0.62550002336502075
      ],
      "type": "VEC3"
    },
    {
      "bufferView": 2,
      "byteOffset": 142164,
      "componentType": 5126,
      "count": 3681,
      "max": [
        0.99963504076004028,
        0.9994775652885437,
        0.9997749924659729
      ],
      "min": [
        -0.99976402521133423,
        -0.99981719255447388,
        -0.99991822242736816
      ],
      "type": "VEC3"
    },
    {
      "bufferView": 3,
      "byteOffset": 65328,
      "componentType": 5126,
      "count": 3681,
      "max": [
        0.999672532081604,
        0.99945265054702759,
        0.99946737289428711,
        1
      ],
      "min": [
        -0.99970954656600952,
        -0.99995136260986328,
        -0.99997913837432861,
        -1
      ],
      "type": "VEC4"
    },
    {
      "bufferView": 1,
      "byteOffset": 32664,
      "componentType": 5126,
      "count": 3681,
      "max": [
        1.9608999490737915,
        0.98970001935958862
      ],
      "min": [
        0.002099999925121665,
        0.002099999925121665
      ],
      "type": "VEC2"
    },
    {
      "bufferView": 0,
      "byteOffset": 52212,
      "componentType": 5125,
      "count": 11208,
      "max": [
        3680
      ],
      "min": [
        0
      ],
      "type": "SCALAR"
    }
  ],
  "asset": {
    "extras": {
      "author": "kraken (https://sketchfab.com/kraken)",
      "license": "CC-BY-4.0 (http://creativecommons.org/licenses/by/4.0/)",
      "source": "https://sketchfab.com/models/95233e2a8c0e4fe891301b9d673dadc3",
      "title": "Darius"
    },
    "generator": "Sketchfab-3.29.3",
    "version": "2.0"
  },
  "bufferViews": [
    {
      "buffer": 0,
      "byteLength": 97044,
      "byteOffset": 0,
      "name": "floatBufferViews",
      "target": 34963
    },
    {
      "buffer": 0,
      "byteLength": 62112,
      "byteOffset": 97044,
      "byteStride": 8,
      "name": "floatBufferViews",
      "target": 34962
    },
    {
      "buffer": 0,
      "byteLength": 186336,
      "byteOffset": 159156,
      "byteStride": 12,
      "name": "floatBufferViews",
      "target": 34962
    },
    {
      "buffer": 0,
      "byteLength": 124224,
      "byteOffset": 345492,
      "byteStride": 16,
      "name": "floatBufferViews",
      "target": 34962
    }
  ],
  "buffers": [
    {
      "byteLength": 469716,
      "uri": "scene.bin"
    }
  ],
  "extensionsUsed": [
    "KHR_materials_unlit"
  ],
  "images": [
    {
      "uri": "textures/Scene_-_Root_baseColor.jpg"
    }
  ],
  "materials": [
    {
      "doubleSided": true,
      "emissiveFactor": [
        0,
        0,
        0
      ],
      "extensions": {
        "KHR_materials_unlit": {}
      },
      "name": "Scene_-_Root",
      "pbrMetallicRoughness": {
        "baseColorFactor": [
          1,
          1,
          1,
          1
        ],
        "baseColorTexture": {
          "index": 0,
          "texCoord": 0
        },
        "metallicFactor": 0,
        "roughnessFactor": 1
      }
    }
  ],
  "meshes": [
    {
      "primitives": [
        {
          "attributes": {
            "NORMAL": 1,
            "POSITION": 0,
            "TANGENT": 2,
            "TEXCOORD_0": 3
          },
          "indices": 4,
          "material": 0,
          "mode": 4
        }
      ]
    },
    {
      "primitives": [
        {
          "attributes": {
            "NORMAL": 6,
            "POSITION": 5,
            "TANGENT": 7,
            "TEXCOORD_0": 8
          },
          "indices": 9,
          "material": 0,
          "mode": 4
        }
      ]
    }
  ],
  "nodes": [
    {
      "children": [
        1
      ],
      "name": "RootNode (gltf orientation matrix)",
      "rotation": [
        -0.70710678118654746,
        -0,
        -0,
        0.70710678118654757
      ]
    },
    {
      "children": [
        2
      ],
      "name": "RootNode (model correction matrix)"
    },
    {
      "children": [
        3,
        4
      ],
      "name": "Darius.obj.cleaner"
    },
    {
      "mesh": 0,
      "name": ""
    },
    {
      "mesh": 1,
      "name": ""
    }
  ],
  "samplers": [
    {
      "magFilter": 9729,
      "minFilter": 9987,
      "wrapS": 10497,
      "wrapT": 10497
    }
  ],
  "scene": 0,
  "scenes": [
    {
      "name": "OSG_Scene",
      "nodes": [
        0
      ]
    }
  ],
  "textures": [
    {
      "sampler": 0,
      "source": 0
    }
  ]
}

